<svg width="35" height="35" viewBox="0 0 35 35" fill="none" xmlns="http://www.w3.org/2000/svg">
<path d="M25.5 26H9.5V23H25.5V26Z" fill="#00D8AB"/>
<path d="M25.5 21H9.5V18H25.5V21Z" fill="#00D8AB"/>
<path d="M25.5605 14.4395L23.4395 16.5605L17.5 10.6211L11.5605 16.5605L9.43945 14.4395L17.5 6.37891L25.5605 14.4395Z" fill="#00D8AB"/>
<path fill-rule="evenodd" clip-rule="evenodd" d="M17.5 0C27.165 0 35 7.83502 35 17.5C35 27.165 27.165 35 17.5 35C7.83502 35 0 27.165 0 17.5C0 7.83502 7.83502 0 17.5 0ZM17.5 3C9.49187 3 3 9.49187 3 17.5C3 25.5081 9.49187 32 17.5 32C25.5081 32 32 25.5081 32 17.5C32 9.49187 25.5081 3 17.5 3Z" fill="#00D8AB"/>
</svg>
