<svg width="314" height="252" viewBox="0 0 314 252" fill="none" xmlns="http://www.w3.org/2000/svg">
<g clip-path="url(#clip0_463_30)">
<mask id="path-1-inside-1_463_30" fill="white">
<path d="M0 25.6C0 16.6392 0 12.1587 1.7439 8.73615C3.27787 5.72556 5.72556 3.27787 8.73615 1.7439C12.1587 0 16.6392 0 25.6 0H288.4C297.361 0 301.841 0 305.264 1.7439C308.274 3.27787 310.722 5.72556 312.256 8.73615C314 12.1587 314 16.6392 314 25.6V252H0V25.6Z"/>
</mask>
<path d="M0 25.6C0 16.6392 0 12.1587 1.7439 8.73615C3.27787 5.72556 5.72556 3.27787 8.73615 1.7439C12.1587 0 16.6392 0 25.6 0H288.4C297.361 0 301.841 0 305.264 1.7439C308.274 3.27787 310.722 5.72556 312.256 8.73615C314 12.1587 314 16.6392 314 25.6V252H0V25.6Z" fill="#0A0A0A"/>
<path d="M-1 16C-1 6.61116 6.61116 -1 16 -1H298C307.389 -1 315 6.61116 315 16H313C313 7.71573 306.284 1 298 1H16C7.71573 1 1 7.71573 1 16H-1ZM314 252H0H314ZM-1 252V16C-1 6.61116 6.61116 -1 16 -1V1C7.71573 1 1 7.71573 1 16V252H-1ZM298 -1C307.389 -1 315 6.61116 315 16V252H313V16C313 7.71573 306.284 1 298 1V-1Z" fill="#BDB7B7" mask="url(#path-1-inside-1_463_30)"/>
<rect x="16" y="104" width="282" height="72" rx="8" fill="#1F1F1F"/>
<rect x="16" y="192" width="282" height="72" rx="8" fill="#1F1F1F"/>
<rect x="16" y="16" width="282" height="72" rx="8" fill="#1F1F1F"/>
<path d="M32 31H286" stroke="#555555" stroke-width="8" stroke-linecap="round"/>
<path d="M32 121H286" stroke="#555555" stroke-width="8" stroke-linecap="round"/>
<path d="M32 50H195" stroke="#555555" stroke-width="8" stroke-linecap="round"/>
<path d="M32 140H195" stroke="#555555" stroke-width="8" stroke-linecap="round"/>
<path d="M0 25.6C0 16.6392 0 12.1587 1.7439 8.73615C3.27787 5.72556 5.72556 3.27787 8.73615 1.7439C12.1587 0 16.6392 0 25.6 0H288.4C297.361 0 301.841 0 305.264 1.7439C308.274 3.27787 310.722 5.72556 312.256 8.73615C314 12.1587 314 16.6392 314 25.6V252H0V25.6Z" fill="url(#paint0_linear_463_30)"/>
</g>
<defs>
<linearGradient id="paint0_linear_463_30" x1="157" y1="252" x2="157" y2="126" gradientUnits="userSpaceOnUse">
<stop stop-color="#0A0A0A"/>
<stop offset="1" stop-color="#0A0A0A" stop-opacity="0"/>
</linearGradient>
<clipPath id="clip0_463_30">
<rect width="314" height="252" fill="white"/>
</clipPath>
</defs>
</svg>
