<svg width="386" height="255" viewBox="0 0 386 280" fill="none" xmlns="http://www.w3.org/2000/svg">
<rect x="24" y="24" width="282" height="72" rx="8" fill="#1F1F1F"/>
<rect x="80" y="204" width="282" height="72" rx="8" fill="#1F1F1F"/>
<path d="M76.6667 96C76.6667 98.9455 79.0545 101.333 82 101.333C84.9455 101.333 87.3333 98.9455 87.3333 96C87.3333 93.0545 84.9455 90.6667 82 90.6667C79.0545 90.6667 76.6667 93.0545 76.6667 96ZM281.167 205C281.167 207.946 283.554 210.333 286.5 210.333C289.446 210.333 291.833 207.946 291.833 205C291.833 202.054 289.446 199.667 286.5 199.667C283.554 199.667 281.167 202.054 281.167 205ZM82 96H81V141.5H82H83V96H82ZM90 149.5V150.5H278.5V149.5V148.5H90V149.5ZM286.5 157.5H285.5V205H286.5H287.5V157.5H286.5ZM278.5 149.5V150.5C282.366 150.5 285.5 153.634 285.5 157.5H286.5H287.5C287.5 152.529 283.471 148.5 278.5 148.5V149.5ZM82 141.5H81C81 146.471 85.0294 150.5 90 150.5V149.5V148.5C86.134 148.5 83 145.366 83 141.5H82Z" fill="#706C6C"/>
<path d="M0 25.6C0 16.6392 0 12.1587 1.7439 8.73615C3.27787 5.72556 5.72556 3.27787 8.73615 1.7439C12.1587 0 16.6392 0 25.6 0H360.4C369.361 0 373.841 0 377.264 1.7439C380.274 3.27787 382.722 5.72556 384.256 8.73615C386 12.1587 386 16.6392 386 25.6V280H0V25.6Z" fill="url(#paint0_linear_431_370)"/>
<path d="M300.667 59C300.667 61.9455 303.054 64.3333 306 64.3333C308.946 64.3333 311.333 61.9455 311.333 59C311.333 56.0545 308.946 53.6667 306 53.6667C303.054 53.6667 300.667 56.0545 300.667 59ZM306 59V60H385V59V58H306V59Z" fill="#706C6C"/>
<defs>
<linearGradient id="paint0_linear_431_370" x1="193" y1="280" x2="193" y2="140" gradientUnits="userSpaceOnUse">
<stop stop-color="#0A0A0A"/>
<stop offset="1" stop-color="#0A0A0A" stop-opacity="0"/>
</linearGradient>
</defs>
</svg>
