<svg width="314" height="252" viewBox="0 0 314 252" fill="none" xmlns="http://www.w3.org/2000/svg">
<g clip-path="url(#clip0_4015_13284)">
<mask id="path-1-inside-1_4015_13284" fill="white">
<path d="M0 25.6C0 16.6392 0 12.1587 1.7439 8.73615C3.27787 5.72556 5.72556 3.27787 8.73615 1.7439C12.1587 0 16.6392 0 25.6 0H288.4C297.361 0 301.841 0 305.264 1.7439C308.274 3.27787 310.722 5.72556 312.256 8.73615C314 12.1587 314 16.6392 314 25.6V252H0V25.6Z"/>
</mask>
<path d="M0 25.6C0 16.6392 0 12.1587 1.7439 8.73615C3.27787 5.72556 5.72556 3.27787 8.73615 1.7439C12.1587 0 16.6392 0 25.6 0H288.4C297.361 0 301.841 0 305.264 1.7439C308.274 3.27787 310.722 5.72556 312.256 8.73615C314 12.1587 314 16.6392 314 25.6V252H0V25.6Z" fill="#0A0A0A"/>
<path d="M-1 16C-1 6.61116 6.61116 -1 16 -1H298C307.389 -1 315 6.61116 315 16H313C313 7.71573 306.284 1 298 1H16C7.71573 1 1 7.71573 1 16H-1ZM314 252H0H314ZM-1 252V16C-1 6.61116 6.61116 -1 16 -1V1C7.71573 1 1 7.71573 1 16V252H-1ZM298 -1C307.389 -1 315 6.61116 315 16V252H313V16C313 7.71573 306.284 1 298 1V-1Z" fill="#BDB7B7" mask="url(#path-1-inside-1_4015_13284)"/>
<path d="M0 25.6C0 16.6392 0 12.1587 1.7439 8.73615C3.27787 5.72556 5.72556 3.27787 8.73615 1.7439C12.1587 0 16.6392 0 25.6 0H288.4C297.361 0 301.841 0 305.264 1.7439C308.274 3.27787 310.722 5.72556 312.256 8.73615C314 12.1587 314 16.6392 314 25.6V252H0V25.6Z" fill="url(#paint0_linear_4015_13284)"/>
<rect x="42" y="31" width="212.476" height="54.2492" rx="8" fill="#1F1F1F"/>
<rect x="84.1953" y="166.623" width="212.476" height="54.2492" rx="8" fill="#1F1F1F"/>
<path d="M80.362 85.248C80.362 88.1936 82.7498 90.5814 85.6953 90.5814C88.6408 90.5814 91.0286 88.1936 91.0286 85.248C91.0286 82.3025 88.6408 79.9147 85.6953 79.9147C82.7498 79.9147 80.362 82.3025 80.362 85.248ZM234.445 167.375C234.445 170.321 236.833 172.709 239.778 172.709C242.724 172.709 245.111 170.321 245.111 167.375C245.111 164.43 242.724 162.042 239.778 162.042C236.833 162.042 234.445 164.43 234.445 167.375ZM85.6953 85.248H84.6953V117.558H85.6953H86.6953V85.248H85.6953ZM93.6953 125.558V126.558H231.778V125.558V124.558H93.6953V125.558ZM239.778 133.558H238.778V167.375H239.778H240.778V133.558H239.778ZM231.778 125.558V126.558C235.644 126.558 238.778 129.692 238.778 133.558H239.778H240.778C240.778 128.588 236.749 124.558 231.778 124.558V125.558ZM85.6953 117.558H84.6953C84.6953 122.529 88.7248 126.558 93.6953 126.558V125.558V124.558C89.8293 124.558 86.6953 121.424 86.6953 117.558H85.6953Z" fill="#706C6C"/>
<path d="M249.143 57.3711C249.143 60.3166 251.531 62.7044 254.477 62.7044C257.422 62.7044 259.81 60.3166 259.81 57.3711C259.81 54.4256 257.422 52.0378 254.477 52.0378C251.531 52.0378 249.143 54.4256 249.143 57.3711ZM254.477 57.3711V58.3711H314V57.3711V56.3711H254.477V57.3711Z" fill="#706C6C"/>
</g>
<defs>
<linearGradient id="paint0_linear_4015_13284" x1="157" y1="252" x2="157" y2="126" gradientUnits="userSpaceOnUse">
<stop stop-color="#0A0A0A"/>
<stop offset="1" stop-color="#0A0A0A" stop-opacity="0"/>
</linearGradient>
<clipPath id="clip0_4015_13284">
<rect width="314" height="252" fill="white"/>
</clipPath>
</defs>
</svg>
